<svg width="50" height="50" viewBox="0 0 50 50" fill="none" xmlns="http://www.w3.org/2000/svg">
<path fill-rule="evenodd" clip-rule="evenodd" d="M10.0526 0.0924527C8.73578 0.260919 7.6993 0.726041 6.70765 1.59374C5.88899 2.31012 5.3369 3.05847 4.8693 4.08568C4.28273 5.37438 4.1954 6.01564 4.19345 9.05071C4.19189 11.5953 4.18573 11.6773 3.98226 11.8745C3.63071 12.215 3.37635 12.9717 3.37674 13.6758C3.37733 14.6489 3.79159 15.3754 4.67394 15.9508C4.98798 16.1556 5.0211 16.2324 5.19018 17.1451C5.54378 19.0544 6.24259 20.4608 7.53011 21.8548L8.39205 22.7879V23.833V24.8781L5.33953 25.8707C3.6607 26.4166 2.05444 26.9858 1.77029 27.1353C1.16018 27.4563 0.55505 28.1359 0.255367 28.8368C0.0447676 29.3294 0.0397859 29.4424 0.0123377 34.3553C-0.0151105 39.2789 -0.0119847 39.3758 0.185232 39.6493C0.295709 39.8026 0.484134 39.9431 0.603988 39.9616L0.821815 39.9954L0.847212 44.7834C0.869972 49.0519 0.890094 49.5923 1.03329 49.7649C1.26128 50.0396 1.86182 50.0224 2.10094 49.7343C2.27716 49.5219 2.28849 49.2572 2.31525 44.7261L2.34348 39.9421H3.65543H4.96747L4.99472 44.7261C5.02061 49.2579 5.03184 49.5219 5.20815 49.7343C5.47052 50.0504 6.07985 50.0432 6.28635 49.7216C6.51092 49.372 6.51688 34.9901 6.2928 34.2973C6.13153 33.7988 4.99873 31.8504 4.60302 31.3909C4.30969 31.0505 3.91994 31.0082 3.62065 31.2844C3.19936 31.6733 3.25005 31.9329 3.9848 33.149C5.02578 34.8721 4.97323 34.6868 4.97323 36.6335V38.3438H3.21088H1.44853L1.47706 34.0016C1.51329 28.4915 1.36638 28.8666 3.80712 28.0516C4.57567 27.7951 5.21245 27.5963 5.22222 27.61C5.23199 27.6236 5.31795 27.8985 5.41319 28.2209C5.81641 29.5844 6.61612 30.9663 7.57475 31.956C8.32211 32.7276 8.91063 33.1595 9.88919 33.6543C11.1128 34.2731 11.8563 34.4461 13.2761 34.4427C14.6314 34.4395 15.4129 34.2712 16.5351 33.7407L17.2055 33.4238L17.5119 33.7407C17.9001 34.1422 18.2929 34.3558 18.8194 34.4513C19.1853 34.5175 19.235 34.5602 19.238 34.8101C19.2398 34.9661 19.3038 35.4774 19.3802 35.9463C19.6592 37.6588 20.8081 39.5935 22.0715 40.4779L22.5557 40.8168V41.5398V42.2627L20.9226 42.8661C19.1386 43.5251 18.679 43.8209 18.1644 44.6409C17.6709 45.4272 17.5736 45.9534 17.5771 47.8177C17.5805 49.5868 17.6205 49.7594 18.0708 49.941C18.3928 50.0709 18.7922 49.9005 18.928 49.5752C18.9941 49.4172 19.0401 48.6947 19.0414 47.7957C19.0431 46.5485 19.0756 46.2051 19.2261 45.8437C19.4406 45.3283 19.9123 44.9057 20.5285 44.6766L20.9703 44.5125L21.7386 45.3451C22.9878 46.6993 24.1369 47.2293 25.828 47.2319C27.5258 47.2346 28.8864 46.5889 30.038 45.2338L30.6574 44.5049L31.1518 44.684C31.7565 44.9031 32.1732 45.272 32.4257 45.812C32.59 46.1634 32.6168 46.4427 32.6168 47.8087C32.6168 49.2291 32.6372 49.4253 32.8098 49.6646C32.916 49.8119 33.0856 49.956 33.1867 49.9847C33.4826 50.0692 33.9706 49.7888 34.0381 49.4953C34.0714 49.3504 34.0836 48.4243 34.0651 47.4374C34.0342 45.7929 34.0121 45.6032 33.7996 45.1667C33.1972 43.9291 32.7945 43.6275 30.7221 42.8619L29.1003 42.2627L29.1028 41.5553L29.1054 40.8479L29.5916 40.488C30.5981 39.7432 31.6913 38.1951 32.0274 37.0385C32.0913 36.8186 32.1664 36.6389 32.1942 36.6389C32.2222 36.6389 32.4495 36.8355 32.6995 37.0759C35.0366 39.3224 38.6116 39.6614 41.3509 37.8962C42.5888 37.0985 43.864 35.5061 44.351 34.1497C44.4593 33.8485 44.5776 33.5701 44.6141 33.5312C44.7427 33.3937 47.4966 34.6809 47.91 35.0718C48.468 35.5994 48.5387 35.9537 48.5387 38.223V40.1553H47.1712H45.8036V39.5779C45.8036 38.8474 45.7468 38.6919 45.4099 38.5019C45.0583 38.3036 44.6056 38.46 44.4496 38.8336C44.3715 39.0207 44.3384 40.6271 44.3384 44.2483C44.3384 49.2146 44.3453 49.4064 44.5315 49.6646C44.7794 50.0085 45.0166 50.0719 45.399 49.8965C45.5678 49.819 45.7156 49.7414 45.7274 49.7239C45.7392 49.7064 45.7721 47.9179 45.8006 45.7495L45.8525 41.8069L46.7514 41.7763L47.6505 41.7457L47.6794 45.6279C47.7067 49.2713 47.7198 49.524 47.8945 49.7343C48.1335 50.0222 48.7342 50.0396 48.9618 49.7651C49.1034 49.5945 49.1254 49.1151 49.1479 45.6893L49.1736 41.8069L49.3914 41.7731C49.5113 41.7546 49.7012 41.6119 49.8135 41.4561C50.0109 41.1824 50.0167 41.0792 49.9864 38.3465C49.9561 35.6146 49.9473 35.5039 49.7241 35.0405C49.3633 34.2914 49.0381 33.8714 48.5662 33.5449C48.3269 33.3793 46.7874 32.6572 45.1452 31.9401L42.1593 30.6364L43.2733 30.2908C45.5846 29.5739 47.9465 28.3086 48.227 27.6369C48.3147 27.4269 48.2878 26.8809 48.1025 25.1045C47.828 22.4715 47.5988 18.894 47.4729 15.2742C47.3787 12.5661 47.269 11.8362 46.743 10.4155C45.7863 7.83148 43.5703 5.4592 41.1647 4.44371C38.8603 3.47095 36.239 3.47095 33.9346 4.44371C31.5751 5.43981 29.3812 7.75338 28.4294 10.2492C27.8023 11.8937 27.731 12.4084 27.579 16.3846C27.5019 18.4018 27.4281 20.0625 27.4149 20.075C27.2851 20.197 25.9437 20.8684 25.8297 20.8684C25.7176 20.8684 21.2501 18.5012 21.1147 18.37C21.1012 18.3569 21.1538 18.1154 21.2316 17.8335C21.3094 17.5514 21.4027 17.062 21.4389 16.7459C21.499 16.2216 21.5358 16.1537 21.8592 15.9718C22.697 15.5006 23.1868 14.6299 23.1808 13.6225C23.1765 12.8972 23.0248 12.45 22.5908 11.8828C22.3608 11.5822 22.3603 11.5755 22.3603 8.62555C22.3603 6.21959 22.3311 5.56171 22.2032 5.09073C21.9895 4.30412 21.6811 3.7594 21.0911 3.12667C20.8179 2.83363 20.4904 2.34667 20.3637 2.04458C19.9292 1.00991 19.0196 0.286387 17.9026 0.0868052C17.2373 -0.0321125 10.9909 -0.0275306 10.0526 0.0924527ZM18.2089 1.81186C18.6426 2.07378 18.9999 2.53879 19.1373 3.02011C19.2196 3.30888 19.4703 3.66957 19.9147 4.13896C20.8625 5.13974 20.8951 5.28242 20.8951 8.42021V10.9586H20.4113C19.8184 10.9586 19.4857 11.1131 19.343 11.4549C19.1917 11.8173 19.2061 11.956 19.427 12.2623C19.5972 12.4983 19.7111 12.535 20.4103 12.5791C21.1016 12.6228 21.2333 12.6644 21.4584 12.9098C21.6354 13.1029 21.7157 13.3035 21.7157 13.5525C21.7157 14.1206 21.4635 14.4345 20.8515 14.6287C20.5557 14.7224 20.2732 14.882 20.2237 14.9834C20.1742 15.0847 20.0835 15.618 20.0223 16.1686C19.8856 17.3969 19.6327 18.2518 19.1312 19.1805C18.1668 20.9661 16.5197 22.2606 14.6684 22.6877C13.9414 22.8555 12.6025 22.8536 11.8659 22.6836C9.53784 22.1469 7.62965 20.2631 6.82291 17.7051C6.71761 17.3712 6.58711 16.6707 6.5328 16.1482C6.47859 15.6257 6.39009 15.1084 6.33627 14.9986C6.28059 14.8851 6.00659 14.7256 5.70066 14.6287C5.08107 14.4322 4.83238 14.1155 4.84722 13.5422C4.85377 13.2921 4.94031 13.0772 5.10862 12.8936C5.34549 12.6353 5.43321 12.6156 6.59121 12.5613C7.64938 12.5118 7.84103 12.4753 7.95717 12.302C8.03141 12.1909 8.25119 11.5796 8.44558 10.9434L8.79889 9.78649L9.5479 9.78627C11.2035 9.78574 14.1476 9.38381 15.9066 8.91826C17.9384 8.38046 19.0392 7.80538 19.0392 7.28143C19.0392 6.96539 18.7993 6.58146 18.5585 6.51231C18.2219 6.41566 18.0551 6.45135 17.4272 6.7543C15.9557 7.46418 13.0854 7.98887 9.63356 8.17907C8.29368 8.25281 7.95932 8.30321 7.80645 8.4541C7.7035 8.55564 7.45988 9.16078 7.26501 9.79874L6.91072 10.9586H6.28381H5.657V8.74329C5.657 7.12512 5.69616 6.36377 5.80244 5.91878C6.33705 3.68002 8.04176 2.00377 10.1015 1.69156C10.4238 1.64275 12.3139 1.60993 14.3017 1.61878C17.469 1.63284 17.9521 1.65671 18.2089 1.81186ZM39.2387 5.47806C40.8531 5.8362 42.2779 6.68759 43.5075 8.02904C44.4415 9.04783 44.8372 9.68728 45.3653 11.0312C45.8438 12.2484 45.9782 13.1719 46.0454 15.7004C46.125 18.7015 46.2562 20.993 46.506 23.7455C46.6202 25.0055 46.7178 26.2522 46.7227 26.516L46.7316 26.9955L46.0478 27.3925C44.9077 28.0545 42.2882 29.0733 41.7262 29.0733C41.6417 29.0733 41.6038 28.8823 41.6047 28.4606L41.6058 27.8479L42.1449 27.4786C42.7629 27.0553 43.9123 25.828 44.3467 25.1275C46.1894 22.1567 46.3055 18.1043 44.6011 16.2485C43.7484 15.3201 42.59 14.8113 39.9628 14.2116C37.1599 13.5717 36.1123 13.1675 34.8634 12.2437C34.6217 12.0649 34.3107 11.9184 34.1723 11.9181C33.8321 11.9174 33.5306 12.3028 33.4501 12.8413C33.2902 13.9114 32.3696 14.9425 31.1804 15.3834C30.422 15.6646 30.1748 15.9006 30.1748 16.3434C30.1748 16.7525 30.4812 17.1397 30.8037 17.1378C31.1284 17.1359 31.8544 16.8656 32.5217 16.4982C33.2346 16.1055 34.1546 15.1552 34.4658 14.4898C34.5828 14.2396 34.7092 14.0525 34.7466 14.074C35.9727 14.7803 37.1171 15.1865 39.3175 15.6962C42.193 16.3626 42.9699 16.6886 43.6294 17.5058C44.1464 18.1466 44.2908 18.7344 44.2847 20.1758C44.279 21.5132 44.0953 22.2948 43.4867 23.5699C42.9412 24.7124 41.7076 26.018 40.6266 26.5971C39.4583 27.223 38.6844 27.3972 37.3054 27.3446C36.0534 27.2969 35.0639 26.9993 34.1286 26.389C33.6888 26.1021 33.5795 25.9558 33.2586 25.2255C32.9001 24.4096 32.1678 23.2557 31.7509 22.8499C31.5525 22.6568 31.5423 22.5529 31.5423 20.7255C31.5423 18.8996 31.5318 18.7921 31.3299 18.5576C31.0345 18.2146 30.7764 18.2466 29.8817 18.7373C29.4543 18.9717 29.0707 19.1636 29.0292 19.1637C28.9877 19.1638 28.965 18.8881 28.9788 18.551C28.9925 18.2139 29.0454 16.7873 29.0963 15.3807C29.199 12.5445 29.2759 12.0856 29.8879 10.6556C30.3868 9.48962 30.9871 8.58665 31.8192 7.74997C32.9036 6.65967 34.3994 5.80722 35.7914 5.48616C36.7049 5.2755 38.3083 5.27177 39.2387 5.47806ZM9.65164 12.9155C9.33486 13.0878 9.17662 13.4752 9.17496 14.0824C9.17193 15.1364 9.7624 15.6377 10.3813 15.1066C10.6155 14.9056 10.6387 14.8186 10.6387 14.1406C10.6387 13.7307 10.5956 13.3077 10.5431 13.2005C10.4015 12.9119 9.93335 12.7623 9.65164 12.9155ZM16.3326 12.9319C15.9682 13.0991 15.9134 13.2539 15.9134 14.1156C15.9134 14.7048 15.9481 14.8422 16.1532 15.0659C16.7478 15.7146 17.3786 15.1737 17.3786 14.0152C17.3786 13.0992 16.9456 12.6508 16.3326 12.9319ZM11.1775 17.59C10.203 18.5042 12.1812 20.1833 13.7895 19.807C15.2185 19.4726 16.0886 18.2598 15.3778 17.5929C15.0389 17.2749 14.7624 17.331 14.2328 17.8255C13.5884 18.4273 12.9638 18.4273 12.3193 17.8255C11.7912 17.3324 11.513 17.2751 11.1775 17.59ZM33.9174 17.4593C33.8001 17.5109 33.6572 17.6486 33.5999 17.7653C33.4655 18.0393 33.4652 19.2215 33.5995 19.4953C33.8503 20.0064 34.625 19.9583 34.8507 19.4176C34.9921 19.0794 34.9932 18.1847 34.8527 17.8483C34.793 17.7055 34.6371 17.5354 34.5062 17.4703C34.2315 17.3338 34.2041 17.3334 33.9174 17.4593ZM40.4694 17.6014C40.2068 17.8477 40.187 17.92 40.187 18.6307C40.187 19.3415 40.2068 19.4137 40.4694 19.6601C40.6809 19.8585 40.8157 19.9076 41.0067 19.8556C41.5065 19.7195 41.6034 19.5207 41.6034 18.6307C41.6034 17.7408 41.5065 17.5419 41.0067 17.4059C40.8157 17.3539 40.6809 17.403 40.4694 17.6014ZM22.8966 21.1062C23.5687 21.4714 24.1186 21.796 24.1186 21.8274C24.1186 21.8823 21.7254 23.2127 21.6268 23.2127C21.6004 23.2127 21.5789 22.5893 21.5789 21.8274C21.5789 21.0656 21.6004 20.4422 21.6268 20.4422C21.653 20.4422 22.2245 20.741 22.8966 21.1062ZM30.0771 21.8274C30.0771 22.5893 30.0556 23.2127 30.0292 23.2127C29.9306 23.2127 27.5374 21.8822 27.5374 21.8274C27.5374 21.7672 29.8771 20.459 30.0038 20.4484C30.0442 20.445 30.0771 21.0656 30.0771 21.8274ZM19.5425 23.3173C19.2242 23.7307 18.794 24.4157 18.5865 24.8396L18.2089 25.6102L18.1817 24.2063L18.1545 22.8024L19.1096 21.7555L20.0649 20.7086L20.0929 21.6371L20.1209 22.5657L19.5425 23.3173ZM35.4071 22.1837C35.06 22.5624 35.0886 22.9169 35.5071 23.4223C36.2929 24.3711 37.5741 24.6772 38.6486 24.173C39.26 23.886 39.9428 23.1252 39.9428 22.7307C39.9428 22.4269 39.5498 21.934 39.3075 21.934C39.0867 21.934 38.6565 22.1923 38.4375 22.4563C37.994 22.9909 37.1287 22.948 36.5765 22.3641C36.1391 21.9017 35.7243 21.8377 35.4071 22.1837ZM28.3188 24.0651C29.6074 24.7684 30.762 25.3438 30.8848 25.3438C31.0077 25.3438 31.2004 25.2733 31.3132 25.1871C31.5103 25.0366 31.5325 25.061 31.873 25.7998C32.3915 26.9252 32.6168 28.0223 32.6168 29.4223V30.5896L32.9455 30.9237C33.3809 31.3662 33.5066 31.6526 33.4353 32.0407C33.329 32.6212 33.0058 32.833 32.1175 32.9043C31.0666 32.9884 30.9568 33.1233 30.9548 34.3331C30.9507 36.7382 29.8776 38.6458 27.9655 39.6467C27.2087 40.0427 27.0483 40.0863 26.1752 40.1321C24.5371 40.2182 23.3118 39.7151 22.2226 38.5094C21.1899 37.366 20.6998 35.9899 20.6998 34.2336C20.6998 33.1356 20.5699 32.9869 19.5385 32.9043C18.9012 32.8531 18.7012 32.7939 18.5123 32.6003C18.0563 32.1329 18.1379 31.3641 18.6815 31.0078C18.9195 30.8519 19.2616 30.7905 20.1719 30.7403C23.7029 30.5458 27.6337 29.5505 29.8324 28.2942C30.7228 27.7855 30.9179 27.4703 30.6569 26.963C30.3928 26.4496 30.0845 26.4288 29.2266 26.8662C27.0298 27.9862 24.6281 28.6498 21.4324 29.0194C20.6802 29.1065 19.828 29.1781 19.5386 29.1787L19.0123 29.1799L19.0755 28.5054C19.1104 28.1344 19.2065 27.547 19.2893 27.2C19.4438 26.5513 20.0948 25.0242 20.2167 25.0242C20.2544 25.0242 20.3398 25.0961 20.4067 25.184C20.4736 25.2719 20.6438 25.3413 20.785 25.3381C20.9262 25.335 22.0746 24.7621 23.3371 24.0651C24.5997 23.3681 25.7099 22.7953 25.8044 22.7922C25.8988 22.789 27.0303 23.3619 28.3188 24.0651ZM12.3798 24.3715C13.5295 24.5115 14.7906 24.3641 15.889 23.9615L16.7096 23.6606L16.6779 25.0617C16.6496 26.307 16.6178 26.5278 16.3924 27.0487C15.3714 29.4073 12.5392 29.9419 10.8388 28.0969C10.6046 27.8428 10.2989 27.3711 10.1595 27.0487C9.93432 26.5281 9.90258 26.3064 9.87425 25.0617L9.8425 23.6606L10.6631 23.9615C11.1144 24.1269 11.887 24.3114 12.3798 24.3715ZM8.61652 27.0783C8.80201 27.72 9.35518 28.7705 9.7417 29.2147C9.88587 29.3803 10.261 29.7036 10.5752 29.9329C12.1888 31.1107 14.4209 31.0923 16.0341 29.8881C16.573 29.4857 17.2359 28.7247 17.5252 28.1764C17.5941 28.0458 17.613 28.268 17.5891 28.9319C17.5635 29.6509 17.514 29.9227 17.3797 30.0856C17.1029 30.4211 16.7927 31.1222 16.7911 31.416C16.7888 31.8071 16.6984 31.9116 16.1058 32.2075C15.1799 32.6696 14.39 32.8449 13.2272 32.8462C12.0267 32.8475 11.4327 32.697 10.2993 32.1045C8.90135 31.374 7.9054 30.2577 7.16694 28.5938C6.52567 27.1488 6.52156 27.1698 7.51292 26.8253C7.96958 26.6666 8.36812 26.5321 8.39859 26.5264C8.42907 26.5206 8.52714 26.769 8.61652 27.0783ZM35.1565 28.6224C35.8311 28.8786 36.0167 28.9007 37.5008 28.9017C38.6601 28.9023 39.253 28.8571 39.6129 28.7408L40.1131 28.5789L40.1609 29.494C40.2431 31.0664 40.7342 31.7408 42.2917 32.4199C42.7996 32.6413 43.2316 32.84 43.2518 32.8615C43.272 32.8831 43.0993 33.3173 42.8681 33.8265C41.8509 36.0665 39.8574 37.4118 37.5496 37.4158C35.8883 37.4187 34.543 36.8087 33.33 35.5026C32.9378 35.0802 32.6168 34.6892 32.6168 34.6338C32.6168 34.5784 32.8208 34.4769 33.0703 34.4084C33.9984 34.1535 34.7349 33.289 34.9024 32.2582C34.9982 31.668 34.7903 30.8296 34.4149 30.2931C34.1036 29.8483 34.082 29.7648 34.082 29.0077C34.082 28.2798 34.0993 28.2054 34.2529 28.2711C34.3469 28.3112 34.7535 28.4694 35.1565 28.6224ZM23.1418 32.027C22.6398 32.2247 22.4809 32.9343 22.8487 33.3356C23.2858 33.8123 24.0209 33.4552 24.0209 32.7661C24.0209 32.2661 23.5468 31.8675 23.1418 32.027ZM28.1235 32.027C27.6215 32.2247 27.4626 32.9343 27.8304 33.3356C28.2675 33.8123 29.0026 33.4552 29.0026 32.7661C29.0026 32.2661 28.5285 31.8675 28.1235 32.027ZM23.6373 35.9606C23.3198 36.4009 23.3773 36.7219 23.8652 37.2318C24.7636 38.1708 26.0823 38.3794 27.1423 37.7501C28.1089 37.1761 28.4653 36.432 28.022 35.9131C27.8092 35.6639 27.211 35.5868 27.0938 35.7935C26.9234 36.0944 26.2166 36.5323 25.9014 36.5323C25.4918 36.5323 25.0013 36.2906 24.6995 35.9403C24.3873 35.5778 23.9067 35.5871 23.6373 35.9606ZM25.828 41.7003C26.419 41.7003 27.0674 41.6622 27.2688 41.6156L27.6351 41.5308V42.0186C27.6351 42.2868 27.6963 42.6663 27.7713 42.8618C27.9247 43.2626 28.4288 43.725 28.8317 43.8348C28.9794 43.875 29.1003 43.9466 29.1003 43.9938C29.1003 44.1643 28.2288 44.9117 27.702 45.1931C26.5118 45.8289 25.1099 45.8195 23.9357 45.168C23.3801 44.8596 22.5557 44.1568 22.5557 43.9915C22.5557 43.9421 22.6886 43.8698 22.8511 43.8309C23.2126 43.7443 23.6857 43.3238 23.8779 42.9184C23.9565 42.7524 24.0209 42.3724 24.0209 42.0737V41.5308L24.3872 41.6156C24.5887 41.6622 25.237 41.7003 25.828 41.7003Z" fill="#F1AE44"/>
</svg>
