<svg width="40" height="40" viewBox="0 0 40 40" fill="none" xmlns="http://www.w3.org/2000/svg">
<circle cx="20" cy="20" r="20" fill="#FFF612"/>
<path d="M29.7406 27.8752C28.3412 25.4644 26.1012 23.655 23.45 22.7939C24.7208 22.0383 25.7083 20.8863 26.2608 19.5149C26.8134 18.1436 26.9005 16.6288 26.5086 15.2032C26.1168 13.7776 25.2677 12.5201 24.0919 11.6239C22.916 10.7276 21.4785 10.2422 20 10.2422C18.5215 10.2422 17.084 10.7276 15.9081 11.6239C14.7323 12.5201 13.8832 13.7776 13.4914 15.2032C13.0995 16.6288 13.1866 18.1436 13.7392 19.5149C14.2917 20.8863 15.2792 22.0383 16.55 22.7939C13.8988 23.655 11.6588 25.4644 10.2594 27.8752C10.2007 27.9603 10.1602 28.0567 10.1406 28.1582C10.1209 28.2598 10.1225 28.3643 10.1451 28.4652C10.1678 28.5661 10.2111 28.6612 10.2723 28.7446C10.3335 28.828 10.4113 28.8978 10.5007 28.9497C10.5902 29.0015 10.6895 29.0343 10.7922 29.046C10.895 29.0577 10.9991 29.048 11.0979 29.0175C11.1967 28.987 11.2882 28.9365 11.3665 28.8689C11.4449 28.8014 11.5084 28.7184 11.5531 28.6252C12.4104 27.1439 13.6421 25.9141 15.1246 25.0591C16.6072 24.2042 18.2886 23.7541 20 23.7541C21.7114 23.7541 23.3928 24.2042 24.8754 25.0591C26.358 25.9141 27.5896 27.1439 28.4469 28.6252C28.4916 28.7184 28.5551 28.8014 28.6335 28.8689C28.7118 28.9365 28.8033 28.987 28.9021 29.0175C29.001 29.048 29.105 29.0577 29.2078 29.046C29.3105 29.0343 29.4098 29.0015 29.4993 28.9497C29.5887 28.8978 29.6665 28.828 29.7277 28.7446C29.7889 28.6612 29.8322 28.5661 29.8549 28.4652C29.8775 28.3643 29.8791 28.2598 29.8594 28.1582C29.8398 28.0567 29.7993 27.9603 29.7406 27.8752V27.8752ZM14.75 17.0002C14.75 15.9618 15.0579 14.9468 15.6348 14.0834C16.2117 13.2201 17.0316 12.5472 17.9909 12.1498C18.9502 11.7524 20.0058 11.6485 21.0242 11.851C22.0426 12.0536 22.9781 12.5536 23.7123 13.2879C24.4465 14.0221 24.9466 14.9575 25.1491 15.9759C25.3517 16.9943 25.2477 18.0499 24.8504 19.0093C24.453 19.9686 23.7801 20.7885 22.9167 21.3654C22.0534 21.9423 21.0384 22.2502 20 22.2502C18.6076 22.2502 17.2723 21.697 16.2877 20.7125C15.3031 19.7279 14.75 18.3925 14.75 17.0002Z" fill="#1E6B46"/>
</svg>
