<svg width="50" height="50" viewBox="0 0 50 50" fill="none" xmlns="http://www.w3.org/2000/svg">
<path fill-rule="evenodd" clip-rule="evenodd" d="M23.4836 0.181214C23.0299 0.300069 19.205 2.24364 12.1374 5.94657C2.2209 11.1422 1.44025 11.5722 0.968943 12.0988C0.264919 12.8854 0.0013752 13.6431 5.12609e-06 14.884C-0.00116923 16.0027 0.199253 16.6568 0.786821 17.4523C1.17494 17.9776 1.81457 18.4139 3.34789 19.1988L4.25312 19.6622V26.6844V33.7065L3.97068 33.8497C2.85202 34.4164 2.36339 36.245 2.94743 37.6784C3.15334 38.1839 3.18416 38.3571 3.0953 38.5099C2.82559 38.9733 2.60834 39.5758 2.55099 40.0195C2.51693 40.2828 2.35732 42.2673 2.19624 44.4294C1.90598 48.3258 1.9051 48.3652 2.08732 48.8691C2.18841 49.1488 2.41986 49.5073 2.60159 49.6658C2.91827 49.942 3.00909 49.9555 4.79136 49.9926C5.9388 50.0165 6.78776 49.9815 7.00864 49.9013C7.44951 49.7414 7.94107 49.0796 8.02484 48.5335C8.09462 48.0786 7.5321 40.2292 7.38472 39.6007C7.33325 39.3809 7.18361 39.0026 7.05228 38.7598L6.8135 38.3185L7.06647 37.6933C7.68203 36.1721 7.23891 34.6722 5.87969 33.6758C5.72986 33.566 5.71861 33.016 5.74317 27.0119L5.76999 20.4677L7.77617 21.5181L9.78236 22.5685L9.84098 26.6858C9.90586 31.2513 9.92504 31.4126 10.579 32.9039C11.8354 35.7691 15.0468 38.2196 19.1076 39.4118C21.1794 40.0201 22.1149 40.1349 25 40.1349C27.1085 40.1349 27.9287 40.0886 28.7884 39.9211C31.2431 39.4429 33.0856 38.7579 34.9554 37.6283C37.0855 36.3413 38.6302 34.7072 39.421 32.9039C40.075 31.4126 40.0941 31.2513 40.159 26.6867L40.2176 22.5701L44.1322 20.5139C48.7539 18.0862 48.7377 18.096 49.2143 17.4508C49.8007 16.6568 50.0012 16.0022 50 14.884C49.9986 13.6431 49.7351 12.8854 49.0311 12.0988C48.5598 11.5721 47.7797 11.1426 37.8632 5.94753C29.9249 1.78881 27.0092 0.313834 26.4476 0.172357C25.5232 -0.0605646 24.3934 -0.0572135 23.4836 0.181214ZM26.1217 1.95841C26.5749 2.07583 30.1798 3.90342 36.8866 7.41616C42.4326 10.3207 47.2045 12.8364 47.4911 13.0064C48.3193 13.4979 48.6859 14.3759 48.4749 15.3628C48.2576 16.3792 48.5659 16.1933 37.3888 22.0503C31.6783 25.0426 26.7519 27.5805 26.4411 27.6901C25.6487 27.9695 24.2454 27.9505 23.4573 27.6498C22.5407 27.3001 7.37973 19.3293 7.46125 19.24C7.49991 19.1976 10.6593 18.501 14.4822 17.692L21.433 16.221L21.8993 16.6563C23.1583 17.8318 26.0079 18.0503 27.5558 17.09C28.6745 16.396 29.2144 15.0335 28.776 14.0103C28.2537 12.791 26.8387 12.0583 25 12.0552C23.8847 12.0533 23.1483 12.2395 22.3743 12.7193C21.8716 13.0308 21.1834 13.8692 21.1834 14.1699C21.1834 14.2706 21.1284 14.3784 21.061 14.4096C20.9938 14.4408 17.2886 15.2425 12.8275 16.1913L4.7163 17.9163L3.48558 17.2671C2.10846 16.5407 1.68089 16.1288 1.52666 15.3799C1.31831 14.3676 1.67737 13.4999 2.50891 13.0064C4.2674 11.9629 23.3083 2.10264 23.8345 1.96308C24.6594 1.74428 25.2904 1.74296 26.1217 1.95841ZM26.3843 14.1063C27.1168 14.3884 27.4809 14.6953 27.3977 14.9604C27.3236 15.1967 26.6489 15.611 26.0765 15.7718C25.1183 16.0411 23.873 15.8859 23.0719 15.3974C22.5599 15.0851 22.4721 14.8426 22.7688 14.5598C23.4708 13.8907 25.2464 13.6679 26.3843 14.1063ZM17.1221 26.4121C20.1362 27.9923 22.8886 29.381 23.2385 29.4981C23.6766 29.6448 24.2248 29.7111 25 29.7111C25.7752 29.7111 26.3234 29.6448 26.7615 29.4981C27.1114 29.381 29.8638 27.9923 32.8779 26.4121C35.8921 24.8318 38.4166 23.5098 38.4878 23.4743C38.5927 23.4219 38.6114 23.7487 38.5857 25.1914C38.5562 26.849 38.535 27.0227 38.2805 27.6873C37.6892 29.2318 36.7579 30.3562 35.0167 31.628C34.4863 32.0153 34.0199 32.3922 33.9804 32.4654C33.8375 32.73 33.9054 33.3764 34.1012 33.6159C34.4767 34.0752 34.9208 33.8998 36.4447 32.6906C36.8993 32.3298 37.5489 31.7086 37.8882 31.3102C38.6272 30.4422 38.6958 30.6039 38.1524 31.9325C36.9339 34.9115 32.9951 37.3683 28.1316 38.1828C26.9174 38.3862 23.0826 38.3862 21.8684 38.1828C17.0049 37.3683 13.0661 34.9115 11.8476 31.9325C11.3237 30.6516 11.3783 30.4741 12.0495 31.2758C14.9005 34.6801 20.7768 36.6833 26.61 36.2395C27.5276 36.1697 28.3875 36.0489 28.5208 35.9711C28.8119 35.8012 28.9673 35.3254 28.8761 34.8817C28.7754 34.3909 28.3418 34.2278 27.4466 34.3439C26.3747 34.4827 23.6116 34.4734 22.4415 34.3269C17.348 33.6889 13.1268 31.1427 11.8244 27.9226L11.446 26.9871L11.4143 25.1984C11.3886 23.75 11.4073 23.4219 11.5122 23.4743C11.5834 23.5098 14.1079 24.8318 17.1221 26.4121ZM31.0395 33.5538C30.1302 33.8788 29.8931 34.1057 29.8931 34.6519C29.8931 35.1439 30.1843 35.531 30.5544 35.531C31.0712 35.531 32.577 34.9516 32.7556 34.6838C33.1556 34.0846 32.7889 33.2452 32.1377 33.2692C31.9528 33.276 31.4585 33.4041 31.0395 33.5538ZM5.61605 35.7267C6.16662 36.5826 5.46417 37.7684 4.6798 37.3073C3.84855 36.8185 4.10769 35.4113 5.02887 35.4113C5.32755 35.4113 5.45849 35.4816 5.61605 35.7267ZM5.60313 39.5551C5.72663 39.6529 5.86531 39.8538 5.9112 40.0017C5.9572 40.1496 6.10908 41.83 6.24873 43.7358C6.38848 45.6417 6.52774 47.43 6.55827 47.7097L6.61386 48.2184H5.04199H3.47022L3.47413 47.7696C3.48568 46.4524 4.03762 40.1114 4.16298 39.8556C4.44777 39.2748 5.08172 39.1425 5.60313 39.5551Z" fill="#863BAE"/>
</svg>
