<svg width="50" height="50" viewBox="0 0 50 50" fill="none" xmlns="http://www.w3.org/2000/svg">
<path fill-rule="evenodd" clip-rule="evenodd" d="M24.7366 0.117736C24.6131 0.216363 24.2856 0.794686 24.0088 1.40296C22.8607 3.92615 21.2238 5.6339 18.2025 7.46101C16.9853 8.19707 16.6746 8.4458 15.9266 9.28322C13.8589 11.5978 13.7077 14.0208 15.4673 16.6464C15.7917 17.1306 15.9357 17.4543 15.9357 17.6999V18.0544H14.524H13.1122V13.9005V9.7464L13.4005 9.57807C13.813 9.33708 13.9551 8.85932 13.8952 7.91428C13.8071 6.52246 12.8734 4.89215 11.6098 3.92387L11.1005 3.53369L11.0979 2.41816C11.0955 1.38747 11.0764 1.28122 10.8477 1.02303C10.5898 0.731592 10.2049 0.664056 9.88912 0.854933C9.6116 1.02269 9.48181 1.58507 9.48181 2.61974V3.55089L8.83854 4.14037C7.70981 5.17448 6.96831 6.49843 6.74131 7.88467C6.6079 8.69863 6.78941 9.29973 7.25944 9.60085L7.56651 9.79753L7.54089 13.9338L7.51538 18.0702L6.9792 18.2751C6.37505 18.5061 5.83796 19.0308 5.51486 19.7058C5.30753 20.1389 5.29533 20.3282 5.26608 23.5495L5.23533 26.9377L3.60218 26.9388C2.09579 26.9398 1.9299 26.9608 1.46482 27.2091C0.1826 27.8937 -0.352169 29.5459 0.241996 30.9871C0.62177 31.9082 1.53107 32.6321 2.30847 32.6321H2.52366V40.4334V48.2347H1.82341C1.23439 48.2347 1.0795 48.2771 0.848566 48.5015C0.501062 48.839 0.477565 49.3912 0.795321 49.7501L1.01667 50H25.0116H49.0065L49.2279 49.7501C49.5456 49.3912 49.5221 48.839 49.1746 48.5015C48.9437 48.2771 48.7888 48.2347 48.1998 48.2347H47.4995V40.4334V32.6321L47.7768 32.6296C48.1474 32.6263 48.8934 32.2353 49.2518 31.8566C50.2494 30.8027 50.2494 28.7671 49.2518 27.7131C48.6312 27.0574 48.2111 26.9429 46.4155 26.9402L44.7768 26.9377V26.0784C44.7768 25.3178 44.7483 25.1869 44.5292 24.9395C44.2164 24.5861 43.8581 24.5837 43.4992 24.9323C43.2469 25.1774 43.2148 25.2917 43.18 26.0712L43.1412 26.9377H38.7152H34.2891V23.4072V19.8766H38.4604H42.6315L42.8975 20.1768C43.1432 20.4545 43.1634 20.5512 43.1648 21.4581C43.1664 22.5368 43.2802 22.9141 43.6803 23.1678C44.0329 23.3912 44.5105 23.1748 44.6791 22.7153C44.8749 22.1813 44.7624 20.2644 44.5023 19.7058C44.1906 19.0362 43.6516 18.5075 43.044 18.2751L42.5078 18.0702L42.4823 13.9338L42.4567 9.79753L42.7637 9.60085C43.7677 8.95761 43.4015 6.65912 42.0314 5.00513C41.6987 4.60344 41.2046 4.09083 40.9335 3.86602L40.4405 3.45739V2.348C40.4405 1.33565 40.4202 1.21698 40.2072 0.991029C39.8971 0.66212 39.4282 0.669181 39.1471 1.00697C38.9517 1.24204 38.9279 1.39636 38.9279 2.43057C38.9279 3.06869 38.8891 3.59064 38.8417 3.59064C38.6738 3.59064 37.3725 5.02358 36.9442 5.67991C36.4416 6.45025 36.1043 7.55633 36.1043 8.43407C36.1043 8.95852 36.1459 9.08676 36.4146 9.39016C36.5852 9.58285 36.7667 9.74059 36.818 9.74059C36.8731 9.74059 36.911 11.4331 36.911 13.8975V18.0544H35.6001H34.2891V17.6666C34.2891 17.4064 34.4375 17.007 34.7399 16.453C35.4345 15.1808 35.6518 14.3475 35.6439 12.9864C35.6364 11.6798 35.3761 10.7229 34.8739 10.1557C34.6333 9.88397 34.5281 9.8399 34.2599 9.89844C33.8829 9.98067 33.5832 10.339 33.5832 10.7075C33.5832 10.8496 33.7033 11.2621 33.8502 11.6243C34.328 12.803 34.1643 14.1936 33.3841 15.5829L33.0835 16.1183H25.0728H17.0622L16.7028 15.5654C16.5051 15.2612 16.2294 14.7359 16.0901 14.398C15.3122 12.5107 16.359 10.5334 18.9414 9.01193C20.7767 7.93057 21.8238 7.08335 23.1036 5.64404C23.7457 4.92187 24.457 4.01066 24.6841 3.61922L25.097 2.90742L25.5783 3.73311C26.2325 4.85502 28.0867 6.92015 29.1461 7.70689C30.3365 8.59066 31.5931 9.28504 32.0023 9.28504C32.547 9.28504 32.8903 8.66685 32.6612 8.09889C32.5734 7.88114 32.2165 7.60883 31.3724 7.11558C30.028 6.32998 29.2754 5.72478 28.3075 4.65082C27.3823 3.62401 26.722 2.60459 26.1722 1.35399C25.9206 0.781589 25.6584 0.260324 25.5895 0.195749C25.3476 -0.0308879 24.9664 -0.0658517 24.7366 0.117736ZM11.0797 5.70861C11.7137 6.35675 12.142 7.04725 12.303 7.68104L12.3921 8.03227H10.3372H8.28219L8.39322 7.66213C8.57625 7.05226 9.16376 6.13216 9.71758 5.58812C10.0039 5.30682 10.2871 5.07551 10.347 5.07391C10.4068 5.07243 10.7366 5.35806 11.0797 5.70861ZM40.3048 5.54029C40.8208 5.9898 41.6506 7.21273 41.6506 7.52342C41.6506 7.60519 41.6782 7.75302 41.7119 7.8521C41.7664 8.01268 41.552 8.03227 39.7345 8.03227H37.6959L37.7642 7.71908C37.8855 7.16239 38.2877 6.51084 38.9595 5.78298C39.3207 5.39155 39.6501 5.07118 39.6914 5.07118C39.7326 5.07118 40.0087 5.28233 40.3048 5.54029ZM11.4987 13.9544V18.0544H10.2886H9.07844V13.9544V9.85448H10.2886H11.4987V13.9544ZM40.9447 13.9544V18.0544H39.7346H38.5245V13.9544V9.85448H39.7346H40.9447V13.9544ZM32.6994 29.7247L32.7261 41.623L32.9473 41.8728C33.2652 42.2317 33.7541 42.2052 34.053 41.8127L34.2891 41.5026V37.0664V32.6303L40.1128 32.6596L45.9365 32.689L45.9624 40.4619L45.9883 48.2347H44.9792H43.97L43.9696 44.1632C43.9693 40.373 43.9561 40.0674 43.7788 39.7391C43.5922 39.3934 41.558 37.305 41.0294 36.9164C40.7037 36.677 39.8623 36.6479 39.5059 36.8636C39.3668 36.9479 38.7062 37.5731 38.0382 38.2532C37.1811 39.1256 36.777 39.6208 36.6656 39.9354C36.533 40.3097 36.5077 41.0096 36.5077 44.3079V48.2347H35.3984H34.2891V46.5897C34.2891 45.0289 34.277 44.9288 34.053 44.6346C33.7543 44.2424 33.2653 44.2156 32.9473 44.5741C32.7426 44.8051 32.7236 44.9512 32.6936 46.5293L32.6611 48.2347H31.8653H31.0694L31.0406 39.6647C31.012 31.1952 31.0092 31.0886 30.7972 30.5821C30.6475 30.2241 29.9176 29.3288 28.377 27.6135C26.0063 24.9737 25.8957 24.8877 24.8673 24.8877C23.9194 24.8877 23.5754 25.1691 21.4252 27.7043C20.1019 29.2645 19.3708 30.2171 19.227 30.5683C19.0228 31.0667 19.0115 31.2659 19.0115 34.3216V37.5486L19.2944 37.8237C19.6556 38.1748 20.0134 38.1733 20.3269 37.8191L20.5745 37.5396L20.5749 34.4879C20.5752 31.6536 20.5893 31.4119 20.7723 31.0946C20.8806 30.9067 21.754 29.8411 22.7131 28.7266C24.2426 26.9494 24.5045 26.6919 24.8432 26.6318L25.2293 26.5632L27.339 28.9459L29.4487 31.3284V39.7815V48.2347H25.0116H20.5745V44.5334C20.5745 40.9998 20.5655 40.8219 20.3754 40.6071C19.9341 40.1087 19.2749 40.2563 19.0573 40.9023C19.0037 41.0618 18.961 42.7482 18.961 44.7116V48.2347H18.2551H17.5492V33.0307V17.8266H25.111H32.6729L32.6994 29.7247ZM19.5836 19.9124C19.3827 20.1541 19.3644 20.2947 19.3644 21.6009C19.3644 22.9431 19.3779 23.0402 19.5978 23.2734C19.8948 23.5886 20.4055 23.598 20.6754 23.2933C20.8564 23.0888 20.877 22.9137 20.877 21.5849C20.877 20.2562 20.8564 20.0811 20.6754 19.8766C20.3945 19.5594 19.8629 19.5769 19.5836 19.9124ZM22.8939 19.8766C22.7129 20.0811 22.6922 20.2562 22.6922 21.5849C22.6922 22.9137 22.7129 23.0888 22.8939 23.2933C23.0187 23.4343 23.23 23.521 23.4485 23.521C23.6671 23.521 23.8783 23.4343 24.0032 23.2933C24.1842 23.0888 24.2049 22.9137 24.2049 21.5849C24.2049 20.2562 24.1842 20.0811 24.0032 19.8766C23.8783 19.7356 23.6671 19.6488 23.4485 19.6488C23.23 19.6488 23.0187 19.7356 22.8939 19.8766ZM26.2217 19.8766C26.0407 20.0811 26.02 20.2562 26.02 21.5849C26.02 22.9137 26.0407 23.0888 26.2217 23.2933C26.5026 23.6104 27.0342 23.593 27.3134 23.2575C27.5144 23.0158 27.5327 22.8752 27.5327 21.569C27.5327 20.2268 27.5192 20.1297 27.2993 19.8964C27.0022 19.5813 26.4916 19.5719 26.2217 19.8766ZM29.4895 19.8886C29.3217 20.098 29.2974 20.3124 29.2974 21.5849C29.2974 22.8575 29.3217 23.0719 29.4895 23.2813C29.7777 23.641 30.3808 23.6096 30.6514 23.2209C30.836 22.9562 30.8605 22.764 30.8605 21.5849C30.8605 20.4059 30.836 20.2137 30.6514 19.9489C30.3808 19.5602 29.7777 19.5289 29.4895 19.8886ZM15.9357 23.4072V26.9377H11.3978H6.8599V23.7074V20.4772L7.12572 20.1768L7.39165 19.8766H11.6636H15.9357V23.4072ZM15.9357 29.7872V30.9284L9.03024 30.8976L2.12483 30.8668L1.84751 30.5536C1.35812 30.0008 1.52875 29.0504 2.17071 28.7536C2.28164 28.7024 5.4242 28.6572 9.15407 28.6532L15.9357 28.646V29.7872ZM48.1757 29.0161C48.3857 29.2534 48.453 29.4398 48.453 29.7849C48.453 30.13 48.3857 30.3164 48.1757 30.5536L47.8984 30.8668L41.0938 30.8977L34.2891 30.9284V29.7849V28.6413L41.0938 28.6721L47.8984 28.7029L48.1757 29.0161ZM15.9357 40.4334V48.2347H14.7304H13.525L13.4951 44.1619C13.4662 40.2458 13.4569 40.0743 13.2525 39.71C13.0152 39.2871 10.9031 37.1561 10.4538 36.8864C10.1193 36.6855 9.45368 36.6612 9.05132 36.8351C8.6903 36.9911 6.39603 39.3886 6.2018 39.8128C6.07898 40.0809 6.05316 40.842 6.05316 44.186V48.2347H5.04473H4.03631V40.5094C4.03631 36.2603 4.06656 32.7497 4.10357 32.708C4.14048 32.6662 6.81785 32.6321 10.0533 32.6321H15.9357V40.4334ZM10.8255 39.5282L11.902 40.616V44.4254V48.2347H9.73392H7.5658V44.4299V40.625L8.59944 39.5352C9.16799 38.9358 9.6592 38.4442 9.69106 38.4429C9.72303 38.4415 10.2335 38.9299 10.8255 39.5282ZM41.3548 39.5443L42.4574 40.6482V44.4415V48.2347H40.2893H38.1212V44.3837V40.5328L39.1548 39.4896C39.7232 38.916 40.2027 38.4452 40.2203 38.4434C40.2377 38.4417 40.7483 38.9371 41.3548 39.5443Z" fill="#50BAC3"/>
</svg>
