<svg width="50" height="50" viewBox="0 0 50 50" fill="none" xmlns="http://www.w3.org/2000/svg">
<path fill-rule="evenodd" clip-rule="evenodd" d="M6.91649 0.0876514C6.23015 0.285298 5.69961 0.70277 5.39591 1.28411C5.17474 1.70764 5.06133 1.81534 4.73945 1.90826C3.25267 2.33733 2.1027 3.6378 1.77145 5.26467C1.69623 5.63419 1.66067 7.6852 1.66067 11.6561V17.5035H0.830335H0V18.8202C0 21.0746 0.367985 22.7376 1.2753 24.5835C2.71148 27.5056 5.27995 29.754 8.38404 30.8063L9.16309 31.0704L9.20382 32.7832C9.2386 34.2441 9.2765 34.5814 9.46142 35.0768C9.78262 35.9373 10.4678 36.5463 11.3363 36.7432L11.5851 36.7996L11.6977 38.574C11.7757 39.8033 11.8854 40.6573 12.0548 41.354C13.05 45.4457 15.9139 48.5936 19.635 49.6858C19.9305 49.7726 20.6009 49.8899 21.1247 49.9465C26.7647 50.5563 31.8179 45.882 32.4281 39.4904C32.4898 38.8434 32.5296 34.9005 32.5296 29.4192C32.5296 20.7899 32.5377 20.3779 32.7222 19.6195C33.384 16.9 35.5107 15.0362 37.9473 15.0405C39.3001 15.0429 40.4042 15.5308 41.4742 16.599C41.9884 17.1124 42.2904 17.5241 42.5739 18.0982C43.1094 19.1825 43.2718 19.8944 43.3411 21.4625L43.4005 22.8033L42.8626 22.9299C41.5047 23.2492 40.1696 24.2201 39.3784 25.4635C37.6707 28.147 38.2191 31.8398 40.604 33.7154C43.1123 35.6882 46.4376 35.3771 48.5046 32.9764C50.5887 30.5558 50.4827 26.9206 48.2598 24.5855C47.4721 23.758 46.5359 23.1914 45.5604 22.9516L45.0617 22.8292L45.003 21.3727C44.94 19.8102 44.7935 19.0033 44.3901 17.9959C43.5511 15.9006 41.9301 14.2948 39.9538 13.6013C39.0721 13.2918 37.41 13.2128 36.5036 13.4373C34.0063 14.0556 32.0476 16.0502 31.1496 18.8896L30.9222 19.6083L30.8635 29.6703C30.8006 40.4148 30.8156 40.0854 30.3184 41.681C30.0579 42.5164 29.4152 43.7864 28.8602 44.5618C24.9036 50.0901 17.3828 49.2684 14.4016 42.9822C13.6736 41.4468 13.4652 40.5137 13.4079 38.5312L13.3583 36.8166L13.6393 36.7517C14.5458 36.5423 15.2205 35.9497 15.5463 35.0768C15.7312 34.5814 15.7691 34.2441 15.8039 32.7832L15.8446 31.0704L16.6237 30.8063C19.7278 29.754 22.2963 27.5056 23.7324 24.5835C24.6398 22.7376 25.0077 21.0746 25.0077 18.8202V17.5035H24.1774H23.3471L23.3451 11.8821C23.344 8.66214 23.3012 5.95504 23.2448 5.54517C23.1133 4.58887 22.7814 3.8642 22.157 3.17033C21.5749 2.52338 21.0575 2.17152 20.3571 1.94635C19.9413 1.81267 19.8411 1.72324 19.5861 1.25762C18.6607 -0.432596 16.196 -0.335878 15.3088 1.42528C15.0101 2.01843 15.0101 3.21314 15.3088 3.80629C15.5604 4.30559 16.088 4.81567 16.5734 5.02882C17.0604 5.24269 18.0283 5.22226 18.5195 4.98786C18.9546 4.78015 19.5938 4.14604 19.6904 3.82631C19.8173 3.40607 20.6798 3.92262 21.2395 4.75397C21.4921 5.12924 21.5339 5.3006 21.6003 6.23298C21.6417 6.81288 21.6779 9.5861 21.6809 12.3955L21.6864 17.5035H20.8705H20.0547L19.9952 18.9152C19.9283 20.5031 19.7746 21.2305 19.2825 22.2867C17.7779 25.5172 13.9363 27.0345 10.4036 25.7938C8.65297 25.1789 7.15104 23.7485 6.41214 21.9925C6.02696 21.0771 5.86119 20.0986 5.86119 18.741V17.5035H4.58824H3.31538L3.34273 11.4714L3.37018 5.43931L3.66324 4.87461C3.95806 4.30641 4.71572 3.6416 5.06631 3.64334C5.15423 3.64376 5.32811 3.83155 5.45257 4.06061C5.8988 4.8819 7.06117 5.38695 8.01185 5.17267C9.64888 4.80366 10.5034 2.91221 9.71765 1.39705C9.15723 0.316306 8.00042 -0.224374 6.91649 0.0876514ZM8.08355 2.02942C8.57863 2.50572 8.1914 3.44087 7.50183 3.43389C7.32482 3.43214 7.10474 3.37064 7.01281 3.29723C6.54021 2.9198 6.62949 2.08496 7.16862 1.83988C7.52098 1.67961 7.77457 1.73218 8.08355 2.02942ZM17.8177 1.83464C18.1648 1.98712 18.4067 2.47297 18.2976 2.79834C18.0808 3.44477 17.3814 3.64468 16.9442 3.18511C16.4611 2.67749 16.7277 1.91658 17.4646 1.69983C17.4797 1.69542 17.6387 1.7561 17.8177 1.83464ZM4.20052 19.7153C4.20052 21.5811 5.24283 23.9563 6.70178 25.4156C8.37661 27.0908 10.1279 27.8481 12.5527 27.9453C14.4956 28.0231 16.1352 27.5997 17.67 26.6234C19.9083 25.1997 21.377 22.7445 21.6361 19.9933L21.7062 19.2489H22.5401H23.374L23.3071 20.0247C22.9576 24.079 20.2824 27.588 16.4342 29.0399C13.6089 30.1058 10.0076 29.9034 7.40102 28.5319C5.97226 27.7802 4.48049 26.4661 3.50665 25.1013C2.56222 23.778 1.85214 21.7817 1.70062 20.0247L1.63371 19.2489H2.91711H4.20052V19.7153ZM45.442 24.7417C46.0589 24.9293 46.8699 25.4893 47.3133 26.0338C49.1007 28.2287 48.407 31.6135 45.9187 32.8382C45.3859 33.1004 45.1268 33.1606 44.3842 33.1949C43.1287 33.2528 42.2389 32.9259 41.3827 32.0921C39.2435 30.0087 39.7597 26.2822 42.3681 24.9781C43.3681 24.4782 44.3325 24.404 45.442 24.7417ZM43.6383 26.3417C43.0708 26.4838 42.7465 26.6952 42.3267 27.1966C40.9806 28.8037 41.941 31.2915 43.9662 31.4438C45.0487 31.5252 45.8468 31.0917 46.3283 30.161C46.6855 29.4703 46.7562 28.8691 46.5624 28.1687C46.2018 26.8649 44.8704 26.033 43.6383 26.3417ZM44.4357 28.09C45.3004 28.4068 45.0914 29.7091 44.1743 29.7184C43.2582 29.7277 43.0849 28.3845 43.9589 28.0487C44.0395 28.0178 44.1098 27.9887 44.1153 27.9843C44.1207 27.9799 44.2649 28.0274 44.4357 28.09ZM14.1645 32.5767C14.1645 33.8797 14.0421 34.5487 13.7535 34.8233C13.4648 35.0978 11.5429 35.0978 11.2543 34.8233C10.9656 34.5487 10.8432 33.8797 10.8432 32.5767V31.4158H12.5039H14.1645V32.5767Z" fill="#E36955"/>
</svg>
